<svg width="72" height="72" viewBox="0 0 72 72" fill="none" xmlns="http://www.w3.org/2000/svg">
<g clip-path="url(#clip0_2100_14538)">
<path fill-rule="evenodd" clip-rule="evenodd" d="M36 0C31.306 3.59289e-07 27.2129 2.62022 24.3616 6.54082C24.1882 6.77923 24.0183 7.02347 23.8536 7.27207C23.6808 7.23703 23.5089 7.2005 23.3366 7.17012C18.5616 6.32752 13.8224 7.26638 10.5434 10.5451C7.26503 13.8242 6.32574 18.5636 7.16836 23.3384C7.19876 23.5107 7.23703 23.6826 7.27207 23.8552C7.02358 24.0199 6.77912 24.1882 6.54082 24.3616C2.62033 27.2129 0.000204383 31.3061 0 36C0.000204404 40.6939 2.62033 44.7871 6.54082 47.6384C6.77905 47.8118 7.02367 47.9801 7.27207 48.1448C7.2369 48.3179 7.19885 48.4906 7.16836 48.6634C6.32603 53.4382 7.26631 58.1778 10.5451 61.4567C13.8239 64.7347 18.5623 65.6739 23.3366 64.8317C23.5091 64.8013 23.6806 64.7629 23.8536 64.728C24.0185 64.9766 24.188 65.2207 24.3616 65.4592C27.2129 69.3797 31.306 72 36 72C40.694 72 44.7871 69.3797 47.6384 65.4592C47.8121 65.2203 47.9831 64.9769 48.1482 64.728C48.3205 64.7629 48.4916 64.8013 48.6634 64.8317C53.438 65.6739 58.176 64.7334 61.4549 61.4549C64.7332 58.1762 65.6721 53.4379 64.8299 48.6634C64.7995 48.4913 64.7629 48.319 64.728 48.1464C64.9766 47.9817 65.2207 47.812 65.4592 47.6384C69.3797 44.7871 71.9998 40.6939 72 36C71.9998 31.3061 69.3797 27.2129 65.4592 24.3616C65.2203 24.1877 64.9753 24.0187 64.7262 23.8536C64.7611 23.681 64.7977 23.5087 64.8281 23.3366C65.6707 18.5618 64.7334 13.8224 61.4549 10.5434C58.1758 7.26478 53.4366 6.32747 48.6616 7.17012C48.4904 7.20032 48.3199 7.23728 48.1482 7.27207C47.9833 7.02319 47.812 6.77948 47.6384 6.54082C44.7871 2.62022 40.694 6.38703e-07 36 0ZM36 58.3839C38.6366 60.7378 41.5458 62.5142 44.4902 63.6503C42.1603 66.7001 39.1529 68.4 36 68.4C32.8471 68.4 29.8397 66.7001 27.5098 63.6503C30.4542 62.5142 33.3635 60.7378 36 58.3839ZM61.3899 49.964C61.8842 53.6521 61.0027 56.8161 58.9095 58.9095C56.8163 61.0025 53.6535 61.8822 49.9658 61.3881C51.1846 58.6274 51.9467 55.483 52.1455 52.1438C55.485 51.9448 58.6291 51.1832 61.3899 49.964ZM10.6119 49.964C13.3728 51.183 16.5166 51.9449 19.8562 52.1438C20.0551 55.4832 20.817 58.6273 22.036 61.3881C18.3479 61.8826 15.1841 61.0042 13.0904 58.9113C10.9967 56.8175 10.1172 53.6528 10.6119 49.964ZM47.6683 43.6412C48.1073 45.1726 48.4061 46.813 48.5314 48.5314C47.4557 48.4529 46.411 48.3053 45.4043 48.0991C44.9685 49.2246 44.4463 50.3415 43.8433 51.4388C45.3481 51.7952 46.9204 52.0337 48.5402 52.1366C48.33 55.2431 47.5621 58.0991 46.3991 60.5198C43.7429 59.591 41.0328 58.0198 38.5454 55.8317C39.7757 54.4428 40.8443 52.9778 41.7463 51.4741C42.4886 50.2364 43.1199 48.9722 43.6289 47.7H43.7589C43.7204 47.6892 43.6815 47.6793 43.643 47.6683C44.0467 46.6537 44.3711 45.6329 44.6204 44.6186C45.6343 44.3693 46.654 44.0451 47.6683 43.6412ZM46.3991 11.4785C47.5625 13.8993 48.3298 16.7563 48.5402 19.8634C46.3235 20.0041 44.1954 20.3953 42.2086 21.0024C40.8611 21.4141 39.5797 21.9262 38.3801 22.5263C37.5903 22.9221 36.8365 23.3557 36.1231 23.8253C36.3982 30.3647 41.6367 35.6027 48.1763 35.8769C48.7033 35.0771 49.1866 34.227 49.6195 33.3317C50.8687 34.0807 52.0976 34.9717 53.2775 36C52.5798 36.608 51.8611 37.163 51.1348 37.6735C51.6701 38.7545 52.1381 39.8934 52.5305 41.0801C53.6639 40.3303 54.7702 39.4843 55.8317 38.5436C58.0201 41.0308 59.5922 43.7414 60.5214 46.3975C58.1009 47.5609 55.2452 48.328 52.1384 48.5384C52.0191 46.663 51.7194 44.8502 51.2631 43.1332C50.8185 41.4617 50.2227 39.8813 49.4964 38.4223C49.0954 37.6168 48.6547 36.8476 48.1763 36.1213C41.6372 36.3955 36.3991 41.6342 36.1231 48.1729C36.923 48.6999 37.7726 49.1846 38.6683 49.6177C37.9192 50.8675 37.0287 52.0972 36 53.2775C35.3916 52.5794 34.8372 51.8596 34.3265 51.133C33.2453 51.6685 32.1068 52.1361 30.9199 52.5287C31.6701 53.6625 32.5154 54.7697 33.4564 55.8317C30.9692 58.0199 28.2584 59.5903 25.6025 60.5198C24.4395 58.0991 23.6718 55.2434 23.4616 52.1366C25.7031 51.9941 27.8541 51.5956 29.86 50.9765C31.1537 50.5775 32.3858 50.0857 33.5426 49.5122C34.3613 49.1062 35.1416 48.6583 35.8787 48.1729C35.6027 41.6354 30.3646 36.3973 23.8271 36.1213C23.2997 36.9216 22.8155 37.7723 22.3823 38.6683C21.132 37.9192 19.9015 37.0291 18.7207 36C19.4197 35.3909 20.1393 34.8345 20.867 34.3231C20.3319 33.2422 19.8635 32.1044 19.4713 30.9182C18.3373 31.6679 17.2303 32.5138 16.1684 33.4546C13.9808 30.9677 12.4094 28.2582 11.4803 25.6025C13.901 24.4393 16.7565 23.67 19.8634 23.4598C20.0041 25.6768 20.3949 27.806 21.0024 29.7932C21.4009 31.0977 21.8963 32.3393 22.4719 33.5057C22.8825 34.3372 23.335 35.1292 23.8271 35.8769C30.3651 35.6009 35.6036 30.3637 35.8787 23.8253C35.0784 23.2979 34.2279 22.8137 33.3317 22.3805C34.0807 21.1307 34.9713 19.9012 36 18.7207C36.6089 19.4193 37.1657 20.1382 37.6769 20.8652C38.7578 20.3303 39.8956 19.8617 41.0818 19.4695C40.3317 18.3353 39.4848 17.2286 38.5436 16.1666C41.0314 13.9784 43.7427 12.4075 46.3991 11.4785ZM16.1666 38.5436C17.5188 39.7418 18.9425 40.7873 20.4046 41.6741C21.681 42.4487 22.986 43.1032 24.3 43.6289V43.7589C24.3106 43.7211 24.3209 43.6826 24.3317 43.6448C25.3458 44.0483 26.3659 44.3711 27.3796 44.6204C27.6289 45.6341 27.9535 46.6542 28.357 47.6683C26.8265 48.107 25.1878 48.4061 23.4704 48.5314C23.5489 47.4552 23.6966 46.4098 23.9027 45.4025C22.7765 44.9665 21.659 44.4451 20.5612 43.8415C20.2048 45.3463 19.9663 46.9188 19.8634 48.5384C16.7571 48.3282 13.9025 47.5603 11.482 46.3975C12.4111 43.7418 13.979 41.0305 16.1666 38.5436ZM63.6503 27.508C66.7004 29.8379 68.3998 32.8469 68.4 36C68.3998 39.1522 66.7008 42.1605 63.6521 44.4902C62.5158 41.5454 60.7383 38.6352 58.3839 35.9982C60.7376 33.3616 62.5145 30.4524 63.6503 27.508ZM8.34961 27.5098C9.48555 30.454 11.2609 33.3635 13.6143 36C11.2607 38.6365 9.48398 41.546 8.34786 44.4902C5.29925 42.1605 3.6002 39.1522 3.6 36C3.6002 32.8473 5.30015 29.8397 8.34961 27.5098ZM52.1384 23.4598C55.2445 23.6702 58.0995 24.4397 60.5198 25.6025C59.5903 28.2578 58.0192 30.9679 55.8317 33.4546C54.4894 32.2654 53.0777 31.2244 51.6269 30.3415C50.3411 29.5592 49.0243 28.9008 47.7 28.3711V28.2411C47.6892 28.2794 47.6793 28.3187 47.6683 28.357C46.6547 27.9536 45.6354 27.6289 44.622 27.3796C44.3729 26.3657 44.0467 25.346 43.643 24.3317C45.1741 23.8928 46.8135 23.5939 48.5314 23.4686C48.4529 24.5441 48.307 25.5892 48.1009 26.5957C49.2271 27.0319 50.3444 27.5548 51.4424 28.1585C51.7988 26.6533 52.0355 25.0798 52.1384 23.4598ZM25.6025 11.4803C28.2577 12.4096 30.9681 13.9792 33.4546 16.1666C32.2652 17.509 31.226 18.922 30.3433 20.3731C29.5609 21.659 28.901 22.9756 28.3711 24.3H28.2463C28.2825 24.3103 28.3192 24.3196 28.3552 24.3299C27.9513 25.3445 27.6273 26.3653 27.378 27.3796C26.365 27.6287 25.3467 27.9538 24.3335 28.357C23.8946 26.8259 23.5957 25.1865 23.4704 23.4686C24.5464 23.5471 25.592 23.6912 26.5991 23.8975C27.0353 22.7718 27.5569 21.6549 28.1601 20.5576C26.6549 20.2016 25.0816 19.9663 23.4616 19.8634C23.672 16.7566 24.4395 13.9009 25.6025 11.4803ZM49.964 10.6102C53.6524 10.1158 56.8161 10.9969 58.9095 13.0904C61.0024 15.1838 61.8838 18.3467 61.3899 22.0342C58.6292 20.8152 55.4848 20.0552 52.1455 19.8562C51.9466 16.5162 51.1834 13.3712 49.964 10.6102ZM13.0887 13.0904C15.1827 10.9966 18.3483 10.115 22.0378 10.6102C20.8183 13.3714 20.0552 16.516 19.8562 19.8562C16.517 20.0551 13.3726 20.8154 10.6119 22.0342C10.118 18.3469 10.9961 15.1837 13.0887 13.0904ZM36 3.6C39.1523 3.6 42.1603 5.29913 44.4902 8.34786C41.5458 9.48373 38.6368 11.2607 36 13.6143C33.3637 11.2609 30.4538 9.48557 27.5098 8.34961C29.8397 5.30019 32.8473 3.6 36 3.6Z" fill="#B3966A"/>
</g>
<defs>
<clipPath id="clip0_2100_14538">
<rect width="72" height="72" fill="white"/>
</clipPath>
</defs>
</svg>
